<?xml version="1.0" standalone="no"?>
<!DOCTYPE svg PUBLIC "-//W3C//DTD SVG 20010904//EN"
 "http://www.w3.org/TR/2001/REC-SVG-20010904/DTD/svg10.dtd">
<svg version="1.0" xmlns="http://www.w3.org/2000/svg"
 width="512.000000pt" height="512.000000pt" viewBox="0 0 512.000000 512.000000"
 preserveAspectRatio="xMidYMid meet">
<metadata>
Created by potrace 1.16, written by Peter Selinger 2001-2019
</metadata>
<g transform="translate(0.000000,512.000000) scale(0.100000,-0.100000)"
fill="#000000" stroke="none">
<path d="M0 4901 c0 -166 3 -220 13 -224 6 -2 81 -17 165 -33 l152 -28 0 -278
0 -278 145 0 145 0 0 -405 0 -405 -145 0 -145 0 0 -170 0 -170 145 0 145 0 0
-1165 0 -1165 -80 0 -80 0 0 -290 0 -290 545 0 545 0 0 290 0 290 -85 0 -85 0
0 1165 0 1165 1180 0 1180 0 0 -1165 0 -1165 -85 0 -85 0 0 -290 0 -290 545 0
545 0 0 290 0 290 -80 0 -80 0 0 1165 0 1165 145 0 145 0 0 170 0 170 -145 0
-145 0 0 405 0 405 145 0 145 0 0 278 0 278 153 28 c83 16 158 31 165 33 9 4
12 58 12 224 0 205 -1 219 -18 219 -10 0 -88 -13 -173 -30 -799 -153 -1534
-222 -2369 -222 -835 0 -1570 69 -2369 222 -85 17 -163 30 -173 30 -17 0 -18
-14 -18 -219z m2260 -1246 l0 -405 -440 0 -440 0 0 405 0 405 440 0 440 0 0
-405z m1480 0 l0 -405 -440 0 -440 0 0 405 0 405 440 0 440 0 0 -405z"/>
</g>
</svg>
